<mxfile host="app.diagrams.net" modified="2020-12-08T13:12:25.785Z" agent="5.0 (Windows)" etag="kcfVmEbpWf5v48c-Qjd4" version="13.10.9" type="github">
  <diagram id="YAnKVHSSUDGrJ1rcTw2G" name="Page-1">
    <mxGraphModel dx="1038" dy="575" grid="1" gridSize="10" guides="1" tooltips="1" connect="1" arrows="1" fold="1" page="1" pageScale="1" pageWidth="827" pageHeight="1169" math="0" shadow="0">
      <root>
        <mxCell id="0" />
        <mxCell id="1" parent="0" />
        <mxCell id="uPZP0e7Fra9R2fEPCt0I-15" value="Rectangle" style="swimlane;fontStyle=1;align=center;verticalAlign=top;childLayout=stackLayout;horizontal=1;startSize=26;horizontalStack=0;resizeParent=1;resizeParentMax=0;resizeLast=0;collapsible=1;marginBottom=0;fontSize=12;" vertex="1" parent="1">
          <mxGeometry x="40" y="40" width="160" height="164" as="geometry" />
        </mxCell>
        <mxCell id="uPZP0e7Fra9R2fEPCt0I-25" value="+ perimeter: float" style="text;strokeColor=none;fillColor=none;align=left;verticalAlign=top;spacingLeft=4;spacingRight=4;overflow=hidden;rotatable=0;points=[[0,0.5],[1,0.5]];portConstraint=eastwest;" vertex="1" parent="uPZP0e7Fra9R2fEPCt0I-15">
          <mxGeometry y="26" width="160" height="26" as="geometry" />
        </mxCell>
        <mxCell id="uPZP0e7Fra9R2fEPCt0I-16" value="+ area: float" style="text;strokeColor=none;fillColor=none;align=left;verticalAlign=top;spacingLeft=4;spacingRight=4;overflow=hidden;rotatable=0;points=[[0,0.5],[1,0.5]];portConstraint=eastwest;" vertex="1" parent="uPZP0e7Fra9R2fEPCt0I-15">
          <mxGeometry y="52" width="160" height="26" as="geometry" />
        </mxCell>
        <mxCell id="uPZP0e7Fra9R2fEPCt0I-17" value="" style="line;strokeWidth=1;fillColor=none;align=left;verticalAlign=middle;spacingTop=-1;spacingLeft=3;spacingRight=3;rotatable=0;labelPosition=right;points=[];portConstraint=eastwest;" vertex="1" parent="uPZP0e7Fra9R2fEPCt0I-15">
          <mxGeometry y="78" width="160" height="8" as="geometry" />
        </mxCell>
        <mxCell id="uPZP0e7Fra9R2fEPCt0I-18" value="+ getPerimeter(void): float" style="text;strokeColor=none;fillColor=none;align=left;verticalAlign=top;spacingLeft=4;spacingRight=4;overflow=hidden;rotatable=0;points=[[0,0.5],[1,0.5]];portConstraint=eastwest;" vertex="1" parent="uPZP0e7Fra9R2fEPCt0I-15">
          <mxGeometry y="86" width="160" height="26" as="geometry" />
        </mxCell>
        <mxCell id="uPZP0e7Fra9R2fEPCt0I-33" value="+ getArea(void): float" style="text;strokeColor=none;fillColor=none;align=left;verticalAlign=top;spacingLeft=4;spacingRight=4;overflow=hidden;rotatable=0;points=[[0,0.5],[1,0.5]];portConstraint=eastwest;" vertex="1" parent="uPZP0e7Fra9R2fEPCt0I-15">
          <mxGeometry y="112" width="160" height="26" as="geometry" />
        </mxCell>
        <mxCell id="uPZP0e7Fra9R2fEPCt0I-27" value="+ translate(void): void" style="text;strokeColor=none;fillColor=none;align=left;verticalAlign=top;spacingLeft=4;spacingRight=4;overflow=hidden;rotatable=0;points=[[0,0.5],[1,0.5]];portConstraint=eastwest;" vertex="1" parent="uPZP0e7Fra9R2fEPCt0I-15">
          <mxGeometry y="138" width="160" height="26" as="geometry" />
        </mxCell>
        <mxCell id="uPZP0e7Fra9R2fEPCt0I-19" value="Point" style="swimlane;fontStyle=1;align=center;verticalAlign=top;childLayout=stackLayout;horizontal=1;startSize=26;horizontalStack=0;resizeParent=1;resizeParentMax=0;resizeLast=0;collapsible=1;marginBottom=0;fontSize=12;" vertex="1" parent="1">
          <mxGeometry x="360" y="40" width="160" height="112" as="geometry" />
        </mxCell>
        <mxCell id="uPZP0e7Fra9R2fEPCt0I-20" value="+ x: float" style="text;strokeColor=none;fillColor=none;align=left;verticalAlign=top;spacingLeft=4;spacingRight=4;overflow=hidden;rotatable=0;points=[[0,0.5],[1,0.5]];portConstraint=eastwest;" vertex="1" parent="uPZP0e7Fra9R2fEPCt0I-19">
          <mxGeometry y="26" width="160" height="26" as="geometry" />
        </mxCell>
        <mxCell id="uPZP0e7Fra9R2fEPCt0I-23" value="+ y: float" style="text;strokeColor=none;fillColor=none;align=left;verticalAlign=top;spacingLeft=4;spacingRight=4;overflow=hidden;rotatable=0;points=[[0,0.5],[1,0.5]];portConstraint=eastwest;" vertex="1" parent="uPZP0e7Fra9R2fEPCt0I-19">
          <mxGeometry y="52" width="160" height="26" as="geometry" />
        </mxCell>
        <mxCell id="uPZP0e7Fra9R2fEPCt0I-21" value="" style="line;strokeWidth=1;fillColor=none;align=left;verticalAlign=middle;spacingTop=-1;spacingLeft=3;spacingRight=3;rotatable=0;labelPosition=right;points=[];portConstraint=eastwest;" vertex="1" parent="uPZP0e7Fra9R2fEPCt0I-19">
          <mxGeometry y="78" width="160" height="8" as="geometry" />
        </mxCell>
        <mxCell id="uPZP0e7Fra9R2fEPCt0I-22" value="+ method(type): type" style="text;strokeColor=none;fillColor=none;align=left;verticalAlign=top;spacingLeft=4;spacingRight=4;overflow=hidden;rotatable=0;points=[[0,0.5],[1,0.5]];portConstraint=eastwest;" vertex="1" parent="uPZP0e7Fra9R2fEPCt0I-19">
          <mxGeometry y="86" width="160" height="26" as="geometry" />
        </mxCell>
        <mxCell id="uPZP0e7Fra9R2fEPCt0I-26" value="possÃ¨de W" style="endArrow=diamondThin;endFill=0;endSize=24;html=1;fontSize=12;exitX=0;exitY=0.5;exitDx=0;exitDy=0;" edge="1" parent="1" source="uPZP0e7Fra9R2fEPCt0I-23">
          <mxGeometry width="160" relative="1" as="geometry">
            <mxPoint x="330" y="220" as="sourcePoint" />
            <mxPoint x="200" y="105" as="targetPoint" />
          </mxGeometry>
        </mxCell>
        <mxCell id="uPZP0e7Fra9R2fEPCt0I-31" value="2" style="edgeLabel;resizable=0;html=1;align=left;verticalAlign=top;" connectable="0" vertex="1" parent="1">
          <mxGeometry x="340" y="109" as="geometry" />
        </mxCell>
      </root>
    </mxGraphModel>
  </diagram>
</mxfile>
